# xmcd
#
# Track frame offsets:
#	150
#	17885
#	40678
#	59601
#	75058
#	93978
#	111581
#	130618
#	148823
#	164386
#	186736
#	204521
#	222018
#	242303
#	261211
#	284283
#
# Disc length: 4054 seconds
#
# Revision: 4
# Processed by: cddbd v1.5.2PL0 Copyright (c) Steve Scherf et al.
# Submitted via: EasyCDDAExtractor 15.3.0.1
#
DISCID=e30fd410
DTITLE=Cristian - Serie 32 - CD 1
DYEAR=2001
DGENRE=Latin
TTITLE0=No Podras
TTITLE1=Nunca Voy A Olvidarte
TTITLE2=Vuelveme A Querer
TTITLE3=Amarte A Ti
TTITLE4=Mañana
TTITLE5=Con Tu Amor
TTITLE6=Ritual
TTITLE7=Lo Voy A Intentar
TTITLE8=Azul Gris
TTITLE9=Amor
TTITLE10=Esa Morena
TTITLE11=Soy
TTITLE12=Mujer Especial
TTITLE13=Esperandote
TTITLE14=Piel Y Seda
TTITLE15=Puerto Rico
EXTD=
EXTT0=
EXTT1=
EXTT2=
EXTT3=
EXTT4=
EXTT5=
EXTT6=
EXTT7=
EXTT8=
EXTT9=
EXTT10=
EXTT11=
EXTT12=
EXTT13=
EXTT14=
EXTT15=
PLAYORDER=
